<?xml version="1.0" encoding="utf-8"?>
<!-- Generator: Adobe Illustrator 24.1.0, SVG Export Plug-In . SVG Version: 6.00 Build 0)  -->
<svg version="1.1" id="Ebene_1" xmlns="http://www.w3.org/2000/svg" xmlns:xlink="http://www.w3.org/1999/xlink" x="0px" y="0px"
	 viewBox="0 0 24 24" style="enable-background:new 0 0 24 24;" xml:space="preserve">
<style type="text/css">
	.st0{fill:#79C1E3;}
	.st1{fill:#FFFFFF;}
</style>
<path class="st0" d="M12,0C6.2,0,1.5,4.3,1.5,9.5c0,5.7,7.3,12.3,9.5,14.2c0.6,0.5,1.4,0.5,1.9,0c2.2-1.9,9.5-8.4,9.5-14.2
	C22.5,4.3,17.8,0,12,0z"/>
<g>
	<path class="st1" d="M15,12.8c-0.3,0-0.6,0.2-0.7,0.6c0,0.3,0.2,0.6,0.6,0.7c0.8,0.1,1.9,0.2,2.6,0.3c0.1,0,0.1,0.1,0.1,0.2
		c0,0.1-0.1,0.1-0.1,0.1c0,0-1.6,0.9-5.4,0.9c-4.1,0-5.4-0.9-5.4-0.9c-0.1,0-0.1-0.1-0.1-0.2c0-0.1,0.1-0.1,0.1-0.1
		c0.8-0.2,1.8-0.3,2.6-0.3c0.3,0,0.6-0.3,0.5-0.7c0-0.3-0.3-0.6-0.6-0.5c-4.4,0.4-4.4,1.3-4.4,1.7c0,1.6,5.1,2.3,7.4,2.3
		s7.4-0.6,7.4-2.3C19.5,14.1,19.5,13.2,15,12.8z"/>
	<path class="st1" d="M12.1,14.9c0.2,0,0.4-0.1,0.5-0.3c1.2-1.9,4-6.5,4-8.4c0-2.5-2-4.5-4.5-4.5s-4.5,2-4.5,4.5c0,2,2.8,6.6,4,8.4
		C11.7,14.8,11.9,14.9,12.1,14.9z M10,5.9c0-1.2,1-2.1,2.1-2.1s2.1,1,2.1,2.1s-1,2.1-2.1,2.1S10,7.1,10,5.9z"/>
</g>
</svg>
