<?xml version="1.0" encoding="utf-8"?>
<!-- Generator: Adobe Illustrator 25.0.0, SVG Export Plug-In . SVG Version: 6.00 Build 0)  -->
<svg version="1.0" id="Ebene_1" xmlns="http://www.w3.org/2000/svg" xmlns:xlink="http://www.w3.org/1999/xlink" x="0px" y="0px"
	 viewBox="0 0 24 24" style="enable-background:new 0 0 24 24;" xml:space="preserve">
<style type="text/css">
	.st0{fill:#79C1E3;}
	.st1{fill:#E6BD74;}
	.st2{fill:#9FBCA8;}
	.st3{fill:#ECAA7D;}
	.st4{fill:#A4B4D1;}
	.st5{fill:#FFFFFF;}
	.st6{fill:#BDA3CE;}
	.st7{fill:#CC7F7F;}
	.st8{fill:#AAAAAA;}
	.st9{fill-rule:evenodd;clip-rule:evenodd;fill:#FFFFFF;}
	.st10{fill:none;stroke:#FFFFFF;stroke-width:2;stroke-linecap:round;stroke-linejoin:round;stroke-miterlimit:10;}
</style>
<path class="st6" d="M12,0C6.21,0,1.5,4.262,1.5,9.5c0,5.748,7.3,12.285,9.54,14.152c0.556,0.464,1.365,0.464,1.921,0
	C15.2,21.784,22.5,15.246,22.5,9.5C22.5,4.262,17.79,0,12,0z"/>
<path class="st5" d="M12.012,12.499c1.544,0,2.796-1.252,2.796-2.796s-1.252-2.796-2.796-2.796S9.216,8.158,9.216,9.702
	S10.468,12.499,12.012,12.499z"/>
<path class="st9" d="M17.491,9.118h0.948c0.323,0,0.584,0.262,0.584,0.584c0,0.323-0.262,0.584-0.584,0.584h-0.948
	c-0.143,0-0.265,0.105-0.288,0.246c-0.362,2.241-2.119,3.998-4.361,4.361c-0.141,0.023-0.246,0.145-0.246,0.288v0.948
	c0,0.323-0.262,0.584-0.584,0.584c-0.323,0-0.584-0.262-0.584-0.584v-0.948c0-0.143-0.105-0.265-0.246-0.288
	c-2.241-0.362-3.998-2.119-4.361-4.361c-0.023-0.141-0.145-0.246-0.288-0.246H5.585c-0.323,0-0.584-0.262-0.584-0.584
	c0-0.323,0.262-0.584,0.584-0.584h0.948c0.143,0,0.265-0.105,0.288-0.246c0.362-2.241,2.119-3.998,4.361-4.361
	c0.141-0.023,0.246-0.145,0.246-0.288V3.275c0-0.323,0.262-0.584,0.584-0.584c0.323,0,0.584,0.262,0.584,0.584v0.948
	c0,0.143,0.105,0.265,0.246,0.288c2.241,0.362,3.998,2.119,4.361,4.361C17.226,9.014,17.348,9.118,17.491,9.118z M7.922,9.702
	c0,2.259,1.831,4.09,4.09,4.09c2.258-0.002,4.088-1.832,4.09-4.09c0-2.259-1.831-4.09-4.09-4.09S7.922,7.444,7.922,9.702z"/>
</svg>
