<?xml version="1.0" encoding="utf-8"?>
<!-- Generator: Adobe Illustrator 24.1.0, SVG Export Plug-In . SVG Version: 6.00 Build 0)  -->
<svg version="1.1" id="Ebene_1" xmlns="http://www.w3.org/2000/svg" xmlns:xlink="http://www.w3.org/1999/xlink" x="0px" y="0px"
	 viewBox="0 0 24 24" style="enable-background:new 0 0 24 24;" xml:space="preserve">
<style type="text/css">
	.st0{fill:#ECAA7D;}
	.st1{fill:#FFFFFF;}
</style>
<path class="st0" d="M12,0C6.2,0,1.5,4.3,1.5,9.5c0,5.7,7.3,12.3,9.5,14.2c0.6,0.5,1.4,0.5,1.9,0c2.2-1.9,9.5-8.4,9.5-14.2
	C22.5,4.3,17.8,0,12,0z"/>
<g>
	<path class="st1" d="M9.2,6.4c-0.2,0.2-0.2,0.6,0,0.9c0.2,0.2,0.6,0.2,0.9,0c1.1-1.1,2.8-1.1,4,0l0,0c0.2,0.2,0.6,0.2,0.9,0
		s0.2-0.6,0-0.9l0,0C13.3,4.9,10.7,4.9,9.2,6.4L9.2,6.4L9.2,6.4z"/>
	<path class="st1" d="M8.7,5.5c1.8-1.8,4.8-1.8,6.6,0c0.2,0.2,0.6,0.2,0.9,0c0.2-0.2,0.2-0.6,0-0.9l0,0c-2.3-2.3-6-2.3-8.3,0
		c-0.2,0.2-0.2,0.6,0,0.9C8.1,5.7,8.5,5.7,8.7,5.5z"/>
	<path class="st1" d="M15.1,8.4H8.9C8,8.4,7.4,9.1,7.4,10v6.2c0,0.9,0.7,1.5,1.5,1.5h6.2c0.9,0,1.5-0.7,1.5-1.5V10
		C16.6,9.1,16,8.4,15.1,8.4z M10.8,13.1c0-0.7,0.6-1.2,1.2-1.2s1.2,0.6,1.2,1.2c0,0.5-0.2,0.9-0.7,1.1c-0.1,0-0.1,0.1-0.1,0.1v1.5
		c0,0.2-0.2,0.5-0.5,0.5s-0.5-0.2-0.5-0.5v-1.5c0-0.1-0.1-0.1-0.1-0.1C11,14,10.8,13.6,10.8,13.1z M12,10.8c-1.3,0-2.4,1.1-2.4,2.4
		c0,0.2-0.2,0.5-0.5,0.5s-0.5-0.2-0.5-0.5c0-1.8,1.4-3.3,3.2-3.3s3.3,1.4,3.3,3.2v0.1c0,0.2-0.2,0.5-0.5,0.5s-0.5-0.2-0.5-0.5
		C14.4,11.8,13.3,10.8,12,10.8z"/>
</g>
</svg>
