<?xml version="1.0" encoding="utf-8"?>
<!-- Generator: Adobe Illustrator 24.1.0, SVG Export Plug-In . SVG Version: 6.00 Build 0)  -->
<svg version="1.1" id="Ebene_1" xmlns="http://www.w3.org/2000/svg" xmlns:xlink="http://www.w3.org/1999/xlink" x="0px" y="0px"
	 viewBox="0 0 24 24" style="enable-background:new 0 0 24 24;" xml:space="preserve">
<style type="text/css">
	.st0{fill:#E6BD74;}
	.st1{fill:#FFFFFF;}
</style>
<path class="st0" d="M12.1,0C6.4,0,1.6,4.3,1.6,9.5c0,5.7,7.3,12.3,9.5,14.2c0.6,0.5,1.4,0.5,1.9,0c2.2-1.9,9.5-8.4,9.5-14.2
	C22.6,4.3,17.9,0,12.1,0z"/>
<path class="st1" d="M8.6,7.2c0,0.2-0.1,0.3-0.3,0.3H5.6V7.3c0-1.5,1.2-2.7,2.8-2.7h0.2V7.2z M5.6,9c0-0.2,0.1-0.3,0.3-0.3h2.4
	c0.2,0,0.3,0.1,0.3,0.3v1.8c0,0.2-0.1,0.3-0.3,0.3H5.9c-0.2,0-0.3-0.1-0.3-0.3V9z M5.6,12.3h2.7c0.2,0,0.3,0.1,0.3,0.3v2.7H8.4
	c-1.5,0-2.7-1.2-2.8-2.7V12.3z M9.8,4.9c0-0.2,0.1-0.3,0.3-0.3h4.2c0.2,0,0.3,0.1,0.3,0.3V15c0,0.2-0.1,0.3-0.3,0.3h-4.2
	c-0.2,0-0.3-0.1-0.3-0.3V4.9z M18.7,7.5H16c-0.2,0-0.3-0.1-0.3-0.3V4.6h0.2c1.5,0,2.7,1.2,2.8,2.7V7.5z M15.7,12.6
	c0-0.2,0.1-0.3,0.3-0.3h2.7v0.3c0,1.5-1.2,2.7-2.8,2.7h-0.2V12.6z M18.7,10.8c0,0.2-0.1,0.3-0.3,0.3H16c-0.2,0-0.3-0.1-0.3-0.3V9
	c0-0.2,0.1-0.3,0.3-0.3h2.4c0.2,0,0.3,0.1,0.3,0.3V10.8z"/>
</svg>
