<?xml version="1.0" encoding="utf-8"?>
<!-- Generator: Adobe Illustrator 25.0.0, SVG Export Plug-In . SVG Version: 6.00 Build 0)  -->
<svg version="1.0" id="Ebene_1" xmlns="http://www.w3.org/2000/svg" xmlns:xlink="http://www.w3.org/1999/xlink" x="0px" y="0px"
	 viewBox="0 0 24 24" style="enable-background:new 0 0 24 24;" xml:space="preserve">
<style type="text/css">
	.st0{fill:#79C1E3;}
	.st1{fill:#E6BD74;}
	.st2{fill:#9FBCA8;}
	.st3{fill:#ECAA7D;}
	.st4{fill:#A4B4D1;}
	.st5{fill:#FFFFFF;}
	.st6{fill:#BDA3CE;}
	.st7{fill:#CC7F7F;}
	.st8{fill:#AAAAAA;}
	.st9{fill-rule:evenodd;clip-rule:evenodd;fill:#FFFFFF;}
	.st10{fill:none;stroke:#FFFFFF;stroke-width:2;stroke-linecap:round;stroke-linejoin:round;stroke-miterlimit:10;}
</style>
<path class="st8" d="M12,0C6.21,0,1.5,4.262,1.5,9.5c0,5.748,7.3,12.285,9.54,14.152c0.556,0.464,1.365,0.464,1.921,0
	C15.2,21.784,22.5,15.246,22.5,9.5C22.5,4.262,17.79,0,12,0z"/>
<path class="st5" d="M13.582,11.144c-0.374,0.163-0.616,0.533-0.616,0.941c0,0.567-0.46,1.027-1.027,1.027
	c-0.567,0-1.027-0.46-1.027-1.027c0-1.225,0.725-2.334,1.848-2.823c0.94-0.411,1.433-1.452,1.155-2.438
	c-0.278-0.988-1.242-1.618-2.258-1.477c-1.016,0.141-1.772,1.009-1.772,2.035c0,0.567-0.46,1.027-1.027,1.027
	c-0.567,0-1.027-0.46-1.027-1.027c0-2.051,1.513-3.787,3.545-4.068c2.032-0.281,3.959,0.981,4.515,2.955
	C16.448,8.243,15.462,10.325,13.582,11.144L13.582,11.144z M11.939,17.386c-0.851,0-1.54-0.69-1.54-1.54
	c0-0.85,0.689-1.54,1.54-1.54c0.851,0,1.54,0.69,1.54,1.54C13.48,16.697,12.79,17.386,11.939,17.386z"/>
</svg>
