<?xml version="1.0" encoding="utf-8"?>
<!-- Generator: Adobe Illustrator 24.1.0, SVG Export Plug-In . SVG Version: 6.00 Build 0)  -->
<svg version="1.0" id="Ebene_1" xmlns="http://www.w3.org/2000/svg" xmlns:xlink="http://www.w3.org/1999/xlink" x="0px" y="0px"
	 viewBox="0 0 24 24" style="enable-background:new 0 0 24 24;" xml:space="preserve">
<style type="text/css">
	.st0{fill:#9FBCA8;}
	.st1{fill:#FFFFFF;}
</style>
<g>
	<path class="st0" d="M12,0C6.21,0,1.5,4.262,1.5,9.5c0,5.748,7.3,12.285,9.54,14.152c0.556,0.464,1.365,0.464,1.921,0
		C15.2,21.784,22.5,15.246,22.5,9.5C22.5,4.262,17.79,0,12,0z"/>
	<g>
		<path class="st1" d="M5.537,4.54L5.537,4.54L5.537,4.54z"/>
		<path class="st1" d="M6.663,3.547L6.663,3.547L6.663,3.547z"/>
		<path class="st1" d="M18.186,4.209L18.186,4.209L18.186,4.209z"/>
		<path class="st1" d="M16.199,5.864L16.199,5.864L16.199,5.864z"/>
		<path class="st1" d="M16.266,5.931L16.266,5.931L16.266,5.931z"/>
	</g>
	<path class="st1" d="M6.75,7.128c0.124,0.124,0.272,0.19,0.455,0.18c0.134-0.007,0.25-0.064,0.326-0.16
		c1.181-1.183,2.737-1.823,4.4-1.823s3.22,0.64,4.383,1.803c0.102,0.102,0.312,0.198,0.434,0.198c0.337,0,0.563-0.227,0.563-0.564
		c0-0.164-0.062-0.297-0.198-0.434c-1.31-1.402-3.096-2.19-5.038-2.224c-0.041,0-0.082-0.001-0.124-0.001
		c-1.937,0-3.826,0.782-5.201,2.157C6.507,6.504,6.507,6.885,6.75,7.128z"/>
	<path class="st1" d="M12,1.486c-2.59,0-5.179,0.969-7.151,2.908C4.735,4.509,4.67,4.663,4.67,4.826s0.064,0.317,0.181,0.434
		c0.245,0.245,0.625,0.242,0.868,0C7.406,3.572,9.637,2.642,12,2.642s4.594,0.93,6.281,2.617c0.234,0.233,0.633,0.233,0.867,0
		c0.243-0.243,0.243-0.623,0.001-0.866C17.179,2.455,14.589,1.486,12,1.486z"/>
	<path class="st1" d="M17.251,12.696c-0.124-0.124-0.272-0.19-0.455-0.18c-0.134,0.007-0.25,0.064-0.326,0.16
		c-1.181,1.183-2.737,1.823-4.4,1.823s-3.22-0.64-4.383-1.803c-0.102-0.102-0.312-0.198-0.434-0.198
		c-0.337,0-0.563,0.227-0.563,0.564c0,0.164,0.062,0.297,0.198,0.434c1.31,1.402,3.096,2.19,5.038,2.224
		c0.041,0,0.082,0.001,0.124,0.001c1.937,0,3.826-0.782,5.201-2.157C17.494,13.321,17.494,12.939,17.251,12.696z"/>
	<path class="st1" d="M12.001,18.338c2.59,0,5.179-0.969,7.151-2.908c0.114-0.115,0.179-0.269,0.179-0.432s-0.064-0.317-0.181-0.434
		c-0.245-0.245-0.625-0.242-0.868,0c-1.688,1.687-3.918,2.617-6.281,2.617s-4.594-0.93-6.281-2.617
		c-0.234-0.233-0.633-0.233-0.867,0c-0.243,0.243-0.243,0.623-0.001,0.866C6.822,17.369,9.412,18.338,12.001,18.338z"/>
	<g>
		<path class="st1" d="M9.577,8.341v1.8c0,0.392-0.111,0.695-0.332,0.91c-0.222,0.215-0.541,0.322-0.959,0.322
			c-0.407,0-0.721-0.105-0.939-0.313c-0.219-0.209-0.328-0.509-0.328-0.9V8.341H7.83v1.756c0,0.212,0.039,0.365,0.118,0.46
			c0.079,0.095,0.195,0.144,0.35,0.144c0.165,0,0.285-0.047,0.359-0.143c0.075-0.095,0.112-0.249,0.112-0.466V8.341H9.577z"/>
		<path class="st1" d="M13.434,11.332H12.48l-0.287-1.303c-0.014-0.055-0.035-0.163-0.064-0.326
			c-0.03-0.162-0.051-0.298-0.065-0.407c-0.011,0.089-0.029,0.199-0.054,0.331c-0.025,0.131-0.048,0.252-0.073,0.363
			c-0.024,0.111-0.123,0.558-0.297,1.342h-0.956l-0.74-2.991h0.779l0.326,1.5c0.074,0.331,0.124,0.595,0.151,0.791
			c0.018-0.138,0.05-0.327,0.095-0.566c0.045-0.238,0.088-0.436,0.127-0.593l0.265-1.132h0.748l0.256,1.132
			c0.043,0.181,0.087,0.39,0.133,0.628c0.045,0.236,0.075,0.415,0.09,0.531c0.017-0.151,0.065-0.414,0.145-0.787l0.332-1.504h0.779
			L13.434,11.332z"/>
		<path class="st1" d="M14.558,8.341h1.043c0.406,0,0.708,0.061,0.906,0.182c0.196,0.12,0.296,0.308,0.296,0.564
			c0,0.167-0.044,0.311-0.129,0.429c-0.085,0.118-0.199,0.195-0.34,0.229v0.02c0.185,0.049,0.32,0.131,0.404,0.245
			c0.083,0.115,0.125,0.264,0.125,0.446c0,0.272-0.102,0.486-0.306,0.641c-0.205,0.156-0.482,0.235-0.834,0.235h-1.164V8.341z
			 M15.366,9.489h0.244c0.115,0,0.205-0.024,0.269-0.072c0.064-0.047,0.095-0.118,0.095-0.213c0-0.167-0.126-0.252-0.38-0.252
			h-0.227V9.489z M15.366,10.08v0.628h0.285c0.252,0,0.378-0.106,0.378-0.319c0-0.1-0.034-0.176-0.101-0.229
			c-0.067-0.054-0.165-0.08-0.294-0.08H15.366z"/>
	</g>
</g>
</svg>
