<?xml version="1.0" encoding="utf-8"?>
<!-- Generator: Adobe Illustrator 24.1.0, SVG Export Plug-In . SVG Version: 6.00 Build 0)  -->
<svg version="1.1" id="Ebene_1" xmlns="http://www.w3.org/2000/svg" xmlns:xlink="http://www.w3.org/1999/xlink" x="0px" y="0px"
	 viewBox="0 0 24 24" style="enable-background:new 0 0 24 24;" xml:space="preserve">
<style type="text/css">
	.st0{fill:#A4B4D1;}
	.st1{fill:#FFFFFF;}
</style>
<path class="st0" d="M-118.6,0c-5.8,0-10.5,4.3-10.5,9.5c0,5.7,7.3,12.3,9.5,14.2c0.6,0.5,1.4,0.5,1.9,0c2.2-1.9,9.5-8.4,9.5-14.2
	C-108.1,4.3-112.8,0-118.6,0z"/>
<g>
	<path class="st1" d="M-124,9.2c-0.3,0.3-0.3,0.9,0,1.2c0.3,0.3,0.9,0.3,1.2,0c2.3-2.3,6.1-2.3,8.4,0c0.1,0.1,0.4,0.3,0.6,0.3l0,0
		c0.5,0,0.8-0.3,0.8-0.8l0,0c0-0.2-0.1-0.4-0.3-0.6C-116.2,6.2-121,6.2-124,9.2z"/>
	<path class="st1" d="M-111.3,6.6c-4.1-4-10.6-4-14.7,0c-0.3,0.3-0.3,0.9,0,1.2c0.3,0.3,0.9,0.3,1.2,0c3.4-3.4,8.8-3.4,12.2,0
		c0.3,0.3,0.9,0.3,1.2,0C-110.9,7.5-110.9,6.9-111.3,6.6L-111.3,6.6z"/>
	<path class="st1" d="M-117,10.6c-1.8-0.6-3.7-0.2-5.1,1.2c-0.3,0.3-0.3,0.9,0,1.2c0.1,0.1,0.4,0.3,0.6,0.3l0,0
		c0.2,0,0.4-0.1,0.6-0.3c1.2-1.2,3.2-1.2,4.4-0.1c0.1,0.1,0.1,0.1,0.1,0.1l0,0l0,0c0.1,0.1,0.4,0.3,0.6,0.3l0,0
		c0.5,0,0.9-0.4,0.8-0.9c0-0.2-0.1-0.4-0.3-0.6C-115.6,11.3-116.3,10.9-117,10.6z"/>
	<circle class="st1" cx="-118.6" cy="16" r="1.7"/>
</g>
<path class="st0" d="M12,0C6.2,0,1.5,4.3,1.5,9.5c0,5.7,7.3,12.3,9.5,14.2c0.6,0.5,1.4,0.5,1.9,0c2.2-1.9,9.5-8.4,9.5-14.2
	C22.5,4.3,17.8,0,12,0z"/>
<g>
	<path class="st1" d="M6.5,9.2c-0.3,0.3-0.3,0.9,0,1.2c0.3,0.3,0.9,0.3,1.2,0c2.3-2.3,6.1-2.3,8.4,0c0.1,0.1,0.4,0.3,0.6,0.3l0,0
		c0.5,0,0.8-0.3,0.8-0.8l0,0c0-0.2-0.1-0.4-0.3-0.6C14.4,6.2,9.5,6.2,6.5,9.2z"/>
	<path class="st1" d="M19.3,6.6c-4.1-4-10.6-4-14.7,0c-0.3,0.3-0.3,0.9,0,1.2c0.3,0.3,0.9,0.3,1.2,0c3.4-3.4,8.8-3.4,12.2,0
		c0.3,0.3,0.9,0.3,1.2,0C19.6,7.5,19.6,6.9,19.3,6.6L19.3,6.6z"/>
	<path class="st1" d="M13.6,10.6c-1.8-0.6-3.7-0.2-5.1,1.2c-0.3,0.3-0.3,0.9,0,1.2c0.1,0.1,0.4,0.3,0.6,0.3l0,0
		c0.2,0,0.4-0.1,0.6-0.3c1.2-1.2,3.2-1.2,4.4-0.1c0.1,0.1,0.1,0.1,0.1,0.1l0,0l0,0c0.1,0.1,0.4,0.3,0.6,0.3l0,0
		c0.5,0,0.9-0.4,0.8-0.9c0-0.2-0.1-0.4-0.3-0.6C14.9,11.3,14.3,10.9,13.6,10.6z"/>
	<circle class="st1" cx="12" cy="16" r="1.7"/>
</g>
</svg>
