<svg xmlns="http://www.w3.org/2000/svg" viewBox="0 0 702.72 241.29"><defs><style>.cls-1{fill:#c9e8fb;}.cls-2{fill:#00b6ed;}.cls-3{fill:#82d0f5;}.cls-4{fill:#009fe3;}</style></defs><title>Element 2</title><g id="Ebene_2" data-name="Ebene 2" style="opacity: 0.1"><g id="Ebene_1-2" data-name="Ebene 1"><path class="cls-1" d="M307.73,84,272.79,62l6.71-3.39,43.22,26.44a32.77,32.77,0,0,1,6.71,5.33,18.15,18.15,0,0,1,3.8,5.78,9,9,0,0,1,.47,5.54,8,8,0,0,1-3.34,4.56L295.55,130.6l-11.13-8.32L313.55,103A7.79,7.79,0,0,0,316.82,99a7.94,7.94,0,0,0-.13-5,15,15,0,0,0-3.15-5.19A27.06,27.06,0,0,0,307.73,84"/><path class="cls-1" d="M107.15,205.13a25.41,25.41,0,0,0,7.92,7.75,29.36,29.36,0,0,0,10.63,4,32,32,0,0,0,11.73-.19,31.25,31.25,0,0,0,11.1-4.57l49.75-32.88L209.14,191,146.52,234.8a35.86,35.86,0,0,1-13,5.67,35.32,35.32,0,0,1-13.7.27,32.61,32.61,0,0,1-12.33-4.89,29.33,29.33,0,0,1-9-9.47L63.59,167.63l14.62-7.38Z"/><path class="cls-1" d="M167.25,1a25.64,25.64,0,0,1,5.56-.94,34.2,34.2,0,0,1,6,.15,32.65,32.65,0,0,1,5.73,1.16,21,21,0,0,1,4.86,2.11l26.81,16.4-6.58,2.37L187.4,8.3a19.51,19.51,0,0,0-4.52-2,29.4,29.4,0,0,0-5.33-1.1A31.24,31.24,0,0,0,172,5.06a23.74,23.74,0,0,0-5.19.91l-27,8.16-4.88-3.65Z"/><path class="cls-1" d="M.9,62a6.19,6.19,0,0,1-.72-4.68,10.42,10.42,0,0,1,2.67-4.67,22.25,22.25,0,0,1,5.4-4.13,35.77,35.77,0,0,1,7.56-3.12L62.41,31.75l4.15,4.51L28.27,47.84a31.11,31.11,0,0,0-6.73,2.89,18.63,18.63,0,0,0-4.7,3.8,9,9,0,0,0-2.19,4.28,5.86,5.86,0,0,0,.89,4.27l15.28,23.7L18.28,91.31Z"/><path class="cls-2" d="M278.21,81.61,245.28,59.68l6.7-3.15,6.41,4.15,34.35,22.24a22.3,22.3,0,0,1,5,4.3,12.29,12.29,0,0,1,2.55,4.61,7,7,0,0,1-.15,4.4A7.51,7.51,0,0,1,297,99.82L266.33,119l-6.88,4.31-9.5-7.55,31.35-18.72a7.41,7.41,0,0,0,3.09-3.27,6.31,6.31,0,0,0,.37-4,10.43,10.43,0,0,0-2.12-4.24,19.19,19.19,0,0,0-4.41-4"/><path class="cls-2" d="M121.25,169a19.35,19.35,0,0,0,6.14,5.33,24.31,24.31,0,0,0,8,2.77,26.41,26.41,0,0,0,8.78-.08,24.57,24.57,0,0,0,8.29-3.05L198,146.84l9.27,9.23-8.85,5.55-48,30.1a27.12,27.12,0,0,1-9.43,3.67,28.66,28.66,0,0,1-10,.12,26.29,26.29,0,0,1-9.11-3.26A21.86,21.86,0,0,1,115,186L86,144.39l-5.21-7.47,12.27-5.77Z"/><path class="cls-2" d="M166.35,11.19a21.26,21.26,0,0,1,4.79-.86,28.52,28.52,0,0,1,5.13.12,26.42,26.42,0,0,1,4.91,1,17.44,17.44,0,0,1,4.15,1.89l23.1,15,5.13,3.32L207,34.18,183.56,18.58a16.14,16.14,0,0,0-3.92-1.85,25.32,25.32,0,0,0-4.67-1,26.74,26.74,0,0,0-4.88-.1,19.93,19.93,0,0,0-4.56.85l-28.88,9.27-4.8-3.81L138,20Z"/><path class="cls-2" d="M40.92,50.28l38.45-12L86.72,36l4.39,4.37L53.48,52.46a22.6,22.6,0,0,0-5.37,2.47,13.23,13.23,0,0,0-3.58,3.24A6.81,6.81,0,0,0,43.1,61.8a5.42,5.42,0,0,0,1.13,3.6l18,24.2L50.93,93.91l-3.84-5.52L30.2,64.13a5.51,5.51,0,0,1-1-3.86,7.76,7.76,0,0,1,1.76-3.88,15.56,15.56,0,0,1,4-3.46,26.29,26.29,0,0,1,5.93-2.64"/><path class="cls-3" d="M292.75,82.92,258.39,60.68l6.92-3.37L272.79,62l34.94,22a26.93,26.93,0,0,1,5.82,4.82A15,15,0,0,1,316.7,94a8,8,0,0,1,.13,5,7.79,7.79,0,0,1-3.27,4.05l-29.13,19.26-7.49,5L266.33,119,297,99.82a7.52,7.52,0,0,0,3.14-3.58,7,7,0,0,0,.15-4.4,12.45,12.45,0,0,0-2.55-4.61,22.42,22.42,0,0,0-5-4.3"/><path class="cls-3" d="M115,186a21.92,21.92,0,0,0,6.86,6.3,26.2,26.2,0,0,0,9.11,3.25,28.52,28.52,0,0,0,10-.12,27.13,27.13,0,0,0,9.43-3.67l48-30.11,10.33,10.72-10.45,6.91-49.74,32.88a31.4,31.4,0,0,1-11.1,4.57,32.08,32.08,0,0,1-11.73.19,29.46,29.46,0,0,1-10.64-4,25.4,25.4,0,0,1-7.91-7.75L78.21,160.25l-5.92-9.18L86,144.39Z"/><path class="cls-3" d="M166.81,6a23.68,23.68,0,0,1,5.19-.9,30.76,30.76,0,0,1,5.55.13,29.73,29.73,0,0,1,5.33,1.09,19.58,19.58,0,0,1,4.52,2l22.18,14,5.64,3.55-6.79,2.52-23.1-15a17.78,17.78,0,0,0-4.15-1.9,26.79,26.79,0,0,0-4.91-1,28.51,28.51,0,0,0-5.12-.12,21.29,21.29,0,0,0-4.79.86L138,20l-5-3.85,6.74-2Z"/><path class="cls-3" d="M28.27,47.84l38.3-11.57L75,33.73l4.41,4.57-38.45,12A26,26,0,0,0,35,52.92a15.44,15.44,0,0,0-4.05,3.46,7.71,7.71,0,0,0-1.75,3.88,5.54,5.54,0,0,0,1,3.86L47.09,88.4,34.82,93l-4-6.18L15.54,63.08a5.84,5.84,0,0,1-.89-4.27,9,9,0,0,1,2.19-4.28,18.64,18.64,0,0,1,4.7-3.8,30.61,30.61,0,0,1,6.73-2.89"/><path class="cls-4" d="M264.95,81.26l-33.83-23.2,7-3.16,7.17,4.78,32.94,21.93a19.2,19.2,0,0,1,4.41,4,10.53,10.53,0,0,1,2.12,4.23,6.36,6.36,0,0,1-.37,4,7.43,7.43,0,0,1-3.09,3.26L249.95,115.8l-8.19,4.89-9.19-7.56,34.23-19.5A6.35,6.35,0,0,0,269.41,91a5.12,5.12,0,0,0,.48-3.21,7.87,7.87,0,0,0-1.54-3.39,14.28,14.28,0,0,0-3.41-3.18"/><path class="cls-4" d="M128.33,154.95a15.46,15.46,0,0,0,4.82,4A19.8,19.8,0,0,0,139.4,161a21.35,21.35,0,0,0,6.78,0,19.36,19.36,0,0,0,6.4-2.24l46.18-26.31,9,8.6-9.8,5.84L152.51,174a24.43,24.43,0,0,1-8.28,3.05,26.3,26.3,0,0,1-8.79.08,24.23,24.23,0,0,1-8-2.77,19.5,19.5,0,0,1-6.14-5.33L93.11,131.15l-5.93-8L99,117.85Z"/><path class="cls-4" d="M165.54,16.49a19.64,19.64,0,0,1,4.56-.85,26.74,26.74,0,0,1,4.88.1,24.86,24.86,0,0,1,4.67,1,16.07,16.07,0,0,1,3.93,1.85L207,34.18l6.08,4-6.89,2.73L180.75,23.52A13.2,13.2,0,0,0,177.51,22a20.14,20.14,0,0,0-3.86-.84,21.09,21.09,0,0,0-4-.08,16.46,16.46,0,0,0-3.78.73L134.26,32.21l-5-4.09,7.37-2.36Z"/><path class="cls-4" d="M53.48,52.45,91.11,40.38l8.37-2.69,4.69,4.48-39.43,13a17.79,17.79,0,0,0-4.26,2,10.14,10.14,0,0,0-2.76,2.66,5.34,5.34,0,0,0-1,3,4.59,4.59,0,0,0,1.06,2.92L78.2,91.59,67,96l-4.78-6.43-18-24.2a5.36,5.36,0,0,1-1.13-3.6,6.9,6.9,0,0,1,1.42-3.63,13.54,13.54,0,0,1,3.59-3.24,22.86,22.86,0,0,1,5.37-2.47"/><path d="M489.4,174v18.37H495V174c0-2.55,1.34-3.86,3.89-3.86h3v-5.51l-3,0c-6.44,0-9.38,4.68-9.44,9.32m107.72-20.88h-1.31c-3.15,0-7.68,1.2-10.56,4.71-2-2.66-5.34-4.71-10.52-4.71h-1.31c-4.94,0-13.3,2.88-13.3,13.21v26h5.55v-26c0-7.08,6-7.69,7.79-7.7h1.27c7.12,0,7.75,5.89,7.77,7.69v26h5.55v-26c0-7.07,6-7.67,7.78-7.69h1.28c7.14,0,7.76,5.92,7.77,7.7v26h5.55v-26c0-4.89-2.91-13.18-13.33-13.18m100,39.22h5.55V151.43h-5.55Zm-290.22,0h5.55V151.43H407ZM640.3,183c0,2.52-1.32,3.82-3.89,3.85H626.06c-2.55,0-3.85-1.32-3.89-3.86v-9c0-2.52,1.32-3.82,3.89-3.86H636.4c2.55,0,3.85,1.31,3.89,3.87Zm-3.89-18.33H626c-4.68.06-9.4,3-9.4,9.36v9c.06,4.63,3,9.32,9.44,9.32h10.38c4.68-.07,9.4-3,9.4-9.36v-9c-.07-4.64-3-9.32-9.45-9.32m48.93,27.66h5.55V164.68h-5.55Zm0-33.16h5.55v-7.75h-5.55Zm-361,0h5.55v-7.75h-5.55Zm0,33.16h5.55V164.68h-5.55Zm153.2-16.85H459.39V174c0-2.52,1.32-3.82,3.89-3.86h10.35c2.55,0,3.86,1.31,3.89,3.86Zm-3.89-10.81H463.25c-4.68.06-9.4,3-9.4,9.36v9c.07,4.64,3,9.33,9.44,9.33h19.79v-5.51H463.29c-2.54,0-3.86-1.32-3.89-3.86v-1.45h23.68V174c-.07-4.64-3-9.32-9.44-9.32M394.49,175.5H376.36V174c0-2.52,1.32-3.82,3.9-3.86H390.6c2.55,0,3.86,1.31,3.89,3.86Zm-3.89-10.81H380.22c-4.68.06-9.4,3-9.4,9.36v9c.07,4.64,3,9.33,9.45,9.33H400v-5.51H380.26c-2.55,0-3.86-1.32-3.9-3.86v-1.45H400V174c-.06-4.64-3-9.32-9.44-9.32M674,183c0,2.55-1.34,3.85-3.89,3.85h-9c-2.58,0-3.91-1.33-3.91-3.85V170.07h12.92c2.59,0,3.91,1.34,3.91,3.86Zm-3.85-18.45h-13V151.43h-5.55V183c0,6.37,4.73,9.29,9.42,9.36h9.07c6.44,0,9.38-4.68,9.45-9.32v-9.13c0-6.38-4.73-9.29-9.41-9.36m-141.64,22.3H515.54c-2.59,0-3.91-1.34-3.91-3.85v-9c0-2.55,1.34-3.86,3.89-3.86h9c2.58,0,3.9,1.34,3.9,3.86Zm-3.86-22.18h-9.08c-6.43,0-9.38,4.68-9.44,9.32v9c0,6.37,4.72,9.29,9.4,9.36h13v3.87c0,2.55-1.34,3.87-3.89,3.87H506.15v5.5h18.43c6.42,0,9.37-4.69,9.44-9.33V174c0-6.37-4.73-9.29-9.41-9.36M441.87,183c0,2.55-1.34,3.85-3.89,3.85h-9c-2.58,0-3.91-1.33-3.91-3.85V170.07H438c2.59,0,3.91,1.34,3.91,3.86ZM438,164.56H425V151.43h-5.55V183c0,6.37,4.73,9.29,9.41,9.36H438c6.43,0,9.38-4.68,9.44-9.32v-9.13c0-6.38-4.73-9.29-9.4-9.36M358.81,183c0,2.52-1.33,3.81-3.9,3.85h-9c-2.55,0-3.86-1.31-3.89-3.85v-9.09c0-2.52,1.32-3.82,3.92-3.86h12.92Zm0-18.45h-13c-4.68.07-9.4,3-9.4,9.36v9.13c.06,4.64,3,9.32,9.44,9.32h9.08c4.68-.07,9.41-3,9.41-9.36V151.43h-5.55ZM276,168H254.25a10.89,10.89,0,0,0-3.86.77v-15.7h-5.55v39.22h5.55V177.41c0-2.52,1.33-3.82,3.9-3.86H276v18.79h5.55V153.12H276Zm35.44,7.45H293.33V174c0-2.52,1.32-3.82,3.89-3.86h10.34c2.55,0,3.86,1.31,3.89,3.86Zm-3.89-10.81H297.18c-4.68.06-9.4,3-9.4,9.36v9c.08,4.64,3,9.33,9.45,9.33H317v-5.51H297.23c-2.55,0-3.86-1.32-3.89-3.86v-1.45H317V174c-.06-4.64-3-9.32-9.44-9.32"/></g></g></svg>
